<?xml version="1.0" encoding="UTF-8" standalone="no"?>
<!-- Generator: Adobe Illustrator 22.1.0, SVG Export Plug-In . SVG Version: 6.00 Build 0)  -->

<svg
   xmlns:dc="http://purl.org/dc/elements/1.1/"
   xmlns:cc="http://creativecommons.org/ns#"
   xmlns:rdf="http://www.w3.org/1999/02/22-rdf-syntax-ns#"
   xmlns:svg="http://www.w3.org/2000/svg"
   xmlns="http://www.w3.org/2000/svg"
   xmlns:xlink="http://www.w3.org/1999/xlink"
   xmlns:sodipodi="http://sodipodi.sourceforge.net/DTD/sodipodi-0.dtd"
   xmlns:inkscape="http://www.inkscape.org/namespaces/inkscape"
   version="1.1"
   id="Capa_1"
   x="0px"
   y="0px"
   viewBox="0 0 953.19997 373.39999"
   xml:space="preserve"
   inkscape:version="0.91 r13725"
   sodipodi:docname="logo_base.svg"
   width="953.20001"
   height="373.39999"><metadata
     id="metadata298"><rdf:RDF><cc:Work
         rdf:about=""><dc:format>image/svg+xml</dc:format><dc:type
           rdf:resource="http://purl.org/dc/dcmitype/StillImage" /><dc:title></dc:title></cc:Work></rdf:RDF></metadata><defs
     id="defs296" /><sodipodi:namedview
     pagecolor="#ffffff"
     bordercolor="#666666"
     borderopacity="1"
     objecttolerance="10"
     gridtolerance="10"
     guidetolerance="10"
     inkscape:pageopacity="0"
     inkscape:pageshadow="2"
     inkscape:window-width="1366"
     inkscape:window-height="744"
     id="namedview294"
     showgrid="false"
     inkscape:snap-page="false"
     fit-margin-top="50"
     fit-margin-left="50"
     fit-margin-right="50"
     fit-margin-bottom="50"
     inkscape:zoom="0.21522694"
     inkscape:cx="476.6"
     inkscape:cy="186.80002"
     inkscape:window-x="0"
     inkscape:window-y="24"
     inkscape:window-maximized="1"
     inkscape:current-layer="Capa_1" /><style
     type="text/css"
     id="style3">
	.st0{fill:url(#SVGID_1_);}
	.st1{fill:url(#SVGID_2_);}
	.st2{fill:url(#SVGID_3_);}
	.st3{fill:url(#SVGID_4_);}
	.st4{fill:url(#SVGID_5_);}
	.st5{fill:#064684;}
	.st6{fill:url(#SVGID_6_);}
	.st7{fill:#D67D10;}
	.st8{fill:#B03F13;}
	.st9{fill:url(#SVGID_7_);}
	.st10{fill:#00205B;}
	.st11{fill:#00528F;}
	.st12{fill:url(#SVGID_9_);}
	.st13{clip-path:url(#SVGID_13_);}
	.st14{clip-path:url(#SVGID_19_);}
	.st15{fill:url(#SVGID_22_);}
	.st16{clip-path:url(#SVGID_26_);}
	.st17{clip-path:url(#SVGID_32_);}
	.st18{fill:#FFFFFF;}
	.st19{fill:#E4831D;}
	.st20{fill:#0080C5;}
	.st21{fill:#141414;}
</style><g
     id="g5"
     transform="translate(-206.4,-197.4)"><linearGradient
       id="SVGID_1_"
       gradientUnits="userSpaceOnUse"
       x1="345.9231"
       y1="311.7438"
       x2="345.9231"
       y2="481.67569"><stop
         offset="0"
         style="stop-color:#0080C5"
         id="stop8" /><stop
         offset="1"
         style="stop-color:#00509E"
         id="stop10" /></linearGradient><path
       class="st0"
       d="m 381.7,311.7 -71.5,0 c -29.7,0 -53.8,24.1 -53.8,53.8 l 0,14.7 0,1.5 0,99.9 42.1,0 0,-47.4 c 3.8,0.8 7.7,1.3 11.7,1.3 l 71.5,0 c 29.7,0 53.8,-24.1 53.8,-53.8 l 0,-16.2 c 0,-29.7 -24.1,-53.8 -53.8,-53.8 z m 10.6,66.2 c 0,12.2 -9.9,22.1 -22.1,22.1 l -71.8,0 0,-34.2 c 0,-12.2 9.9,-22.1 22.1,-22.1 l 49.7,0 c 12.2,0 22.1,9.9 22.1,22.1 l 0,12.1 z"
       id="path12"
       inkscape:connector-curvature="0"
       style="fill:url(#SVGID_1_)" /><linearGradient
       id="SVGID_2_"
       gradientUnits="userSpaceOnUse"
       x1="577.09332"
       y1="311.7438"
       x2="577.09332"
       y2="481.67569"><stop
         offset="0"
         style="stop-color:#F2D200"
         id="stop15" /><stop
         offset="1"
         style="stop-color:#E4831D"
         id="stop17" /></linearGradient><polygon
       class="st1"
       points="595.4,481.7 656.8,362.6 656.8,481.7 698.8,481.7 698.8,311.7 683.7,311.7 656.8,311.7 640.1,311.7 576.5,435.5 515.9,311.7 497.4,311.7 476.4,311.7 455.4,311.7 455.4,481.7 497.4,481.7 497.4,361.3 557.2,481.7 "
       id="polygon19"
       style="fill:url(#SVGID_2_)" /><linearGradient
       id="SVGID_3_"
       gradientUnits="userSpaceOnUse"
       x1="815.98358"
       y1="311.7438"
       x2="815.98358"
       y2="481.67569"><stop
         offset="0"
         style="stop-color:#0080C5"
         id="stop22" /><stop
         offset="1"
         style="stop-color:#00509E"
         id="stop24" /></linearGradient><path
       class="st2"
       d="m 817.4,382.3 87.2,-70.5 -56.5,0 -81.5,73.1 0,-73.1 -43.1,0 0,169.9 43.1,0 0,-90 c 38.4,26.6 70.4,56.1 92.3,90 l 49.4,0 c -19.5,-35.8 -50.9,-68.6 -90.9,-99.4 z"
       id="path26"
       inkscape:connector-curvature="0"
       style="fill:url(#SVGID_3_)" /><g
       id="g28"><g
         id="g30"><path
           class="st5"
           d="m 256.4,500.2 c 0,-1.6 0.8,-2.4 2.3,-2.4 l 2.3,0 0,22.5 -4.6,0 0,-20.1 z"
           id="path32"
           inkscape:connector-curvature="0"
           style="fill:#064684" /><path
           class="st5"
           d="m 263.4,500.2 c 0,-0.6 0.2,-1.2 0.7,-1.7 0.5,-0.5 1,-0.7 1.6,-0.7 l 4.5,0 4.5,17.1 4.4,-17.1 6.9,0 0,22.5 -4.3,0 0,-18.2 -4.6,18.2 -4.7,0 -4.6,-18.2 0,18.2 -4.3,0 0,-20.1 z"
           id="path34"
           inkscape:connector-curvature="0"
           style="fill:#064684" /><path
           class="st5"
           d="m 292.8,520.3 -4.6,0 0,-20.1 c 0,-0.6 0.2,-1.2 0.7,-1.7 0.5,-0.5 1,-0.7 1.6,-0.7 l 7.6,0 c 2.4,0 4.2,0.6 5.4,1.8 1.2,1.2 1.9,3.1 1.9,5.4 0,2.2 -0.6,4 -1.8,5.4 -1.2,1.2 -2.9,1.9 -5.1,1.9 l -5.7,0 0,8 z m 4.6,-12.1 c 2.3,0 3.5,-1 3.5,-3.2 0,-2.2 -1.1,-3.3 -3.2,-3.3 l -4.7,0 0,6.5 4.4,0 z"
           id="path36"
           inkscape:connector-curvature="0"
           style="fill:#064684" /><path
           class="st5"
           d="m 320.8,497.8 8.1,22.5 -4.9,0 -1.5,-4.6 -8.7,0 -1.5,4.6 -4.9,0 7.5,-21 c 0.3,-1 1.1,-1.5 2.2,-1.5 l 3.7,0 z m -5.7,14.1 6.2,0 -3.1,-9.6 -3.1,9.6 z"
           id="path38"
           inkscape:connector-curvature="0"
           style="fill:#064684" /><path
           class="st5"
           d="m 348.2,518.5 c -1.7,1.4 -4,2.1 -6.9,2.1 -3.3,0 -5.9,-1 -7.6,-3 -1.8,-2.1 -2.7,-4.9 -2.7,-8.6 0,-3.7 0.9,-6.6 2.8,-8.6 1.8,-2 4.5,-3 7.9,-3 2.8,0 5,0.7 6.7,2.1 1.6,1.4 2.5,3.4 2.7,5.8 l -2.8,0 c -1,0 -1.7,-0.5 -2.1,-1.4 -0.8,-1.6 -2.3,-2.5 -4.5,-2.5 -1.9,0 -3.5,0.6 -4.6,1.9 -1,1.3 -1.6,3.2 -1.6,5.6 0,2.4 0.5,4.3 1.6,5.6 1,1.3 2.5,1.9 4.5,1.9 1.3,0 2.5,-0.3 3.4,-1 0.9,-0.7 1.4,-1.7 1.7,-3 l 4.5,0 c -0.3,2.6 -1.3,4.6 -3,6.1 z"
           id="path40"
           inkscape:connector-curvature="0"
           style="fill:#064684" /><path
           class="st5"
           d="m 360,501.8 -6.7,0 0,-1.6 c 0,-0.6 0.2,-1.2 0.7,-1.7 0.5,-0.5 1,-0.7 1.6,-0.7 l 15.6,0 0,4 -6.7,0 0,18.5 -4.5,0 0,-18.5 z"
           id="path42"
           inkscape:connector-curvature="0"
           style="fill:#064684" /><path
           class="st5"
           d="m 386.7,497.8 8.1,22.5 -4.8,0 -1.5,-4.6 -8.7,0 -1.5,4.6 -4.9,0 7.5,-21 c 0.3,-1 1.1,-1.5 2.2,-1.5 l 3.6,0 z m -5.8,14.1 6.2,0 -3.1,-9.6 -3.1,9.6 z"
           id="path44"
           inkscape:connector-curvature="0"
           style="fill:#064684" /><path
           class="st5"
           d="m 397,500.2 c 0,-0.6 0.2,-1.2 0.7,-1.7 0.5,-0.5 1,-0.7 1.6,-0.7 l 4.5,0 4.5,17.1 4.4,-17.1 6.9,0 0,22.5 -4.3,0 0,-18.2 -4.6,18.2 -4.7,0 -4.6,-18.2 0,18.2 -4.4,0 0,-20.1 z"
           id="path46"
           inkscape:connector-curvature="0"
           style="fill:#064684" /><path
           class="st5"
           d="m 424.6,500.6 c 2,-2.1 4.6,-3.2 7.8,-3.2 3.3,0 5.9,1.1 7.9,3.2 1.9,2.2 2.9,5 2.9,8.5 0,3.6 -1,6.4 -2.9,8.5 -1.9,2.1 -4.5,3.1 -7.9,3.1 -3.4,0 -6,-1 -7.8,-3.1 -1.9,-2.1 -2.9,-4.9 -2.9,-8.5 0,-3.6 1,-6.5 2.9,-8.5 z m 3.3,14.1 c 1.1,1.3 2.6,2 4.5,2 1.9,0 3.4,-0.7 4.6,-2 1.1,-1.3 1.6,-3.2 1.6,-5.7 0,-2.4 -0.5,-4.3 -1.6,-5.6 -1.1,-1.3 -2.6,-2 -4.6,-2 -1.9,0 -3.4,0.7 -4.5,2 -1.1,1.4 -1.6,3.3 -1.6,5.6 0,2.4 0.5,4.3 1.6,5.7 z"
           id="path48"
           inkscape:connector-curvature="0"
           style="fill:#064684" /><path
           class="st5"
           d="m 450.3,513.2 c 0.2,2.4 1.7,3.6 4.7,3.6 3,0 4.4,-0.9 4.3,-2.8 0,-1.1 -0.7,-1.8 -2.1,-2.2 -1.3,-0.4 -2.8,-0.8 -4.5,-1.2 -4.4,-1.1 -6.6,-3.2 -6.6,-6.1 0.1,-4.7 2.9,-7.1 8.5,-7 5.3,0 8.1,2.3 8.3,7 l -2.6,0 c -0.9,0 -1.6,-0.4 -2.1,-1.3 -0.8,-1.3 -2.1,-1.9 -4.1,-1.9 -2.4,0 -3.6,0.9 -3.7,2.6 0,1.4 1.5,2.5 4.4,3.1 1.7,0.4 3.5,0.9 5.4,1.6 2.5,0.9 3.7,2.7 3.6,5.6 -0.3,4.4 -3.2,6.6 -8.9,6.6 -5.9,0 -9,-2.5 -9.1,-7.4 l 4.5,0 z"
           id="path50"
           inkscape:connector-curvature="0"
           style="fill:#064684" /><path
           class="st5"
           d="m 481.6,500.2 c 0,-0.6 0.2,-1.2 0.7,-1.7 0.5,-0.5 1,-0.7 1.6,-0.7 l 2.3,0 0,18.4 11,0 0,4.1 -15.6,0 0,-20.1 z"
           id="path52"
           inkscape:connector-curvature="0"
           style="fill:#064684" /><path
           class="st5"
           d="m 501.9,500.6 c 2,-2.1 4.6,-3.2 7.8,-3.2 3.3,0 5.9,1.1 7.9,3.2 1.9,2.2 2.9,5 2.9,8.5 0,3.6 -1,6.4 -2.9,8.5 -1.9,2.1 -4.5,3.1 -7.9,3.1 -3.4,0 -6,-1 -7.8,-3.1 -1.9,-2.1 -2.9,-4.9 -2.9,-8.5 -0.1,-3.6 0.9,-6.5 2.9,-8.5 z m 3.3,14.1 c 1.1,1.3 2.6,2 4.5,2 1.9,0 3.4,-0.7 4.6,-2 1.1,-1.3 1.6,-3.2 1.6,-5.7 0,-2.4 -0.5,-4.3 -1.6,-5.6 -1.1,-1.3 -2.6,-2 -4.6,-2 -1.9,0 -3.4,0.7 -4.5,2 -1.1,1.4 -1.6,3.3 -1.6,5.6 -0.1,2.4 0.5,4.3 1.6,5.7 z"
           id="path54"
           inkscape:connector-curvature="0"
           style="fill:#064684" /><path
           class="st5"
           d="m 527.5,513.2 c 0.2,2.4 1.7,3.6 4.7,3.6 3,0 4.4,-0.9 4.3,-2.8 0,-1.1 -0.7,-1.8 -2.1,-2.2 -1.3,-0.4 -2.8,-0.8 -4.5,-1.2 -4.4,-1.1 -6.6,-3.2 -6.6,-6.1 0.1,-4.7 2.9,-7.1 8.5,-7 5.3,0 8.1,2.3 8.3,7 l -2.6,0 c -0.9,0 -1.6,-0.4 -2.1,-1.3 -0.8,-1.3 -2.1,-1.9 -4.1,-1.9 -2.4,0 -3.6,0.9 -3.7,2.6 0,1.4 1.5,2.5 4.4,3.1 1.7,0.4 3.5,0.9 5.4,1.6 2.5,0.9 3.7,2.7 3.6,5.6 -0.3,4.4 -3.2,6.6 -8.9,6.6 -5.9,0 -9,-2.5 -9.1,-7.4 l 4.5,0 z"
           id="path56"
           inkscape:connector-curvature="0"
           style="fill:#064684" /><path
           class="st5"
           d="m 558.9,500.2 c 0,-1.6 0.8,-2.4 2.3,-2.4 l 2.3,0 0,22.5 -4.6,0 0,-20.1 z"
           id="path58"
           inkscape:connector-curvature="0"
           style="fill:#064684" /><path
           class="st5"
           d="m 565.8,500.2 c 0,-0.6 0.2,-1.2 0.7,-1.7 0.5,-0.5 1,-0.7 1.6,-0.7 l 2.5,0 9.2,15.4 0,-15.4 4.5,0 0,22.5 -4.8,0 -9.2,-15.4 0,15.4 -4.5,0 0,-20.1 z"
           id="path60"
           inkscape:connector-curvature="0"
           style="fill:#064684" /><path
           class="st5"
           d="m 586.8,500.2 c 0,-1.6 0.8,-2.3 2.3,-2.4 l 6.5,0 c 3.4,0 6,0.9 7.7,2.8 1.7,1.9 2.6,4.8 2.6,8.5 0,2.1 -0.3,3.9 -1,5.4 -0.6,1.6 -1.6,2.8 -2.7,3.8 -0.9,0.7 -1.9,1.2 -3,1.6 -1.1,0.3 -2.7,0.5 -4.8,0.5 l -7.6,0 0,-20.2 z m 8.2,16 c 2.2,0 3.7,-0.6 4.7,-1.7 1,-1.1 1.5,-3 1.5,-5.5 0,-2.5 -0.5,-4.3 -1.4,-5.5 -0.9,-1.2 -2.3,-1.8 -4.2,-1.8 l -4.3,0 0,14.5 3.7,0 z"
           id="path62"
           inkscape:connector-curvature="0"
           style="fill:#064684" /><path
           class="st5"
           d="m 608,500.2 c 0,-1.6 0.8,-2.4 2.3,-2.4 l 2.3,0 0,22.5 -4.6,0 0,-20.1 z"
           id="path64"
           inkscape:connector-curvature="0"
           style="fill:#064684" /><path
           class="st5"
           d="m 631.9,518.5 c -1.7,1.4 -4,2.1 -6.9,2.1 -3.3,0 -5.9,-1 -7.6,-3 -1.8,-2.1 -2.7,-4.9 -2.7,-8.6 0,-3.7 0.9,-6.6 2.8,-8.6 1.8,-2 4.5,-3 7.9,-3 2.8,0 5,0.7 6.7,2.1 1.6,1.4 2.5,3.4 2.7,5.8 l -2.8,0 c -1,0 -1.7,-0.5 -2.1,-1.4 -0.8,-1.6 -2.3,-2.5 -4.5,-2.5 -1.9,0 -3.5,0.6 -4.6,1.9 -1,1.3 -1.6,3.2 -1.6,5.6 0,2.4 0.5,4.3 1.6,5.6 1,1.3 2.5,1.9 4.5,1.9 1.3,0 2.5,-0.3 3.4,-1 0.9,-0.7 1.4,-1.7 1.7,-3 l 4.5,0 c -0.3,2.6 -1.3,4.6 -3,6.1 z"
           id="path66"
           inkscape:connector-curvature="0"
           style="fill:#064684" /><path
           class="st5"
           d="m 650.4,497.8 8.1,22.5 -4.8,0 -1.5,-4.6 -8.7,0 -1.5,4.6 -5,0 7.5,-21 c 0.3,-1 1.1,-1.5 2.2,-1.5 l 3.7,0 z m -5.8,14.1 6.2,0 -3.1,-9.6 -3.1,9.6 z"
           id="path68"
           inkscape:connector-curvature="0"
           style="fill:#064684" /><path
           class="st5"
           d="m 660.7,500.2 c 0,-1.6 0.8,-2.3 2.3,-2.4 l 6.5,0 c 3.4,0 6,0.9 7.7,2.8 1.7,1.9 2.6,4.8 2.6,8.5 0,2.1 -0.3,3.9 -1,5.4 -0.6,1.6 -1.6,2.8 -2.7,3.8 -0.9,0.7 -1.9,1.2 -3,1.6 -1.1,0.3 -2.7,0.5 -4.8,0.5 l -7.6,0 0,-20.2 z m 8.2,16 c 2.2,0 3.7,-0.6 4.7,-1.7 1,-1.1 1.5,-3 1.5,-5.5 0,-2.5 -0.5,-4.3 -1.4,-5.5 -0.9,-1.2 -2.3,-1.8 -4.2,-1.8 l -4.3,0 0,14.5 3.7,0 z"
           id="path70"
           inkscape:connector-curvature="0"
           style="fill:#064684" /><path
           class="st5"
           d="m 684.6,500.6 c 2,-2.1 4.6,-3.2 7.8,-3.2 3.3,0 5.9,1.1 7.9,3.2 1.9,2.2 2.9,5 2.9,8.5 0,3.6 -1,6.4 -2.9,8.5 -1.9,2.1 -4.5,3.1 -7.9,3.1 -3.4,0 -6,-1 -7.8,-3.1 -1.9,-2.1 -2.9,-4.9 -2.9,-8.5 0,-3.6 1,-6.5 2.9,-8.5 z m 3.3,14.1 c 1.1,1.3 2.6,2 4.5,2 1.9,0 3.4,-0.7 4.6,-2 1.1,-1.3 1.6,-3.2 1.6,-5.7 0,-2.4 -0.5,-4.3 -1.6,-5.6 -1.1,-1.3 -2.6,-2 -4.6,-2 -1.9,0 -3.4,0.7 -4.5,2 -1.1,1.4 -1.6,3.3 -1.6,5.6 0,2.4 0.6,4.3 1.6,5.7 z"
           id="path72"
           inkscape:connector-curvature="0"
           style="fill:#064684" /><path
           class="st5"
           d="m 705.5,500.2 c 0,-0.6 0.2,-1.2 0.7,-1.7 0.5,-0.5 1,-0.7 1.6,-0.7 l 8.5,0 c 2.4,0 4.2,0.5 5.5,1.6 1.2,1 1.7,2.6 1.7,4.8 0,1.4 -0.3,2.6 -0.8,3.4 -0.6,0.9 -1.4,1.6 -2.5,1.9 0.9,0.3 1.7,0.9 2.1,1.6 0.4,0.8 0.6,1.9 0.7,3.4 l 0.2,4.4 c 0,0.7 0.3,1.2 0.7,1.5 l -5,0 c -0.2,-0.4 -0.3,-0.9 -0.4,-1.4 -0.1,-0.3 -0.2,-1.6 -0.2,-3.8 -0.1,-1.4 -0.3,-2.4 -0.8,-2.8 -0.5,-0.5 -1.3,-0.7 -2.6,-0.7 l -4.9,0 0,8.7 -4.6,0 0,-20.2 z m 10,7.4 c 1.1,0 2,-0.2 2.6,-0.7 0.5,-0.5 0.8,-1.3 0.8,-2.3 0,-1 -0.3,-1.7 -0.8,-2.2 -0.5,-0.5 -1.3,-0.8 -2.4,-0.8 l -5.7,0 0,5.9 5.5,0 z"
           id="path74"
           inkscape:connector-curvature="0"
           style="fill:#064684" /><path
           class="st5"
           d="m 726.3,500.2 c 0,-1.6 0.8,-2.3 2.3,-2.4 l 14,0 0,3.9 -11.8,0 0,4.8 8.8,0 0,1.5 c 0,1.6 -0.8,2.3 -2.4,2.3 l -6.4,0 0,5.8 11.8,0 0,4.1 -16.3,0 0,-20 z"
           id="path76"
           inkscape:connector-curvature="0"
           style="fill:#064684" /><path
           class="st5"
           d="m 749.7,513.2 c 0.2,2.4 1.7,3.6 4.7,3.6 2.9,0 4.4,-0.9 4.3,-2.8 0,-1.1 -0.7,-1.8 -2.1,-2.2 -1.3,-0.4 -2.8,-0.8 -4.5,-1.2 -4.4,-1.1 -6.6,-3.2 -6.6,-6.1 0.1,-4.7 2.9,-7.1 8.5,-7 5.3,0 8.1,2.3 8.3,7 l -2.6,0 c -0.9,0 -1.6,-0.4 -2.1,-1.3 -0.8,-1.3 -2.1,-1.9 -4.1,-1.9 -2.4,0 -3.6,0.9 -3.7,2.6 0,1.4 1.5,2.5 4.4,3.1 1.7,0.4 3.5,0.9 5.4,1.6 2.5,0.9 3.7,2.7 3.6,5.6 -0.3,4.4 -3.2,6.6 -8.9,6.6 -5.9,0 -9,-2.5 -9.1,-7.4 l 4.5,0 z"
           id="path78"
           inkscape:connector-curvature="0"
           style="fill:#064684" /><path
           class="st5"
           d="m 798,518.5 c -1.7,1.4 -4,2.1 -6.9,2.1 -3.3,0 -5.9,-1 -7.6,-3 -1.8,-2.1 -2.7,-4.9 -2.7,-8.6 0,-3.7 0.9,-6.6 2.8,-8.6 1.8,-2 4.5,-3 7.9,-3 2.8,0 5,0.7 6.7,2.1 1.6,1.4 2.5,3.4 2.7,5.8 l -2.8,0 c -1,0 -1.7,-0.5 -2.1,-1.4 -0.8,-1.6 -2.3,-2.5 -4.5,-2.5 -1.9,0 -3.5,0.6 -4.6,1.9 -1,1.3 -1.6,3.2 -1.6,5.6 0,2.4 0.5,4.3 1.6,5.6 1,1.3 2.5,1.9 4.5,1.9 1.3,0 2.5,-0.3 3.4,-1 0.9,-0.7 1.4,-1.7 1.7,-3 l 4.5,0 c -0.3,2.6 -1.3,4.6 -3,6.1 z"
           id="path80"
           inkscape:connector-curvature="0"
           style="fill:#064684" /><path
           class="st5"
           d="m 803.2,500.2 c 0,-0.6 0.2,-1.2 0.7,-1.7 0.5,-0.5 1,-0.7 1.6,-0.7 l 2.3,0 0,18.4 11,0 0,4.1 -15.6,0 0,-20.1 z"
           id="path82"
           inkscape:connector-curvature="0"
           style="fill:#064684" /><path
           class="st5"
           d="m 834,497.8 8.1,22.5 -4.8,0 -1.5,-4.6 -8.8,0 -1.5,4.6 -4.9,0 7.5,-21 c 0.3,-1 1.1,-1.5 2.2,-1.5 l 3.7,0 z m -5.8,14.1 6.2,0 -3.1,-9.6 -3.1,9.6 z"
           id="path84"
           inkscape:connector-curvature="0"
           style="fill:#064684" /><path
           class="st5"
           d="m 844.3,497.8 5.1,0 4.8,16.8 4.4,-15.1 c 0.3,-1.1 1,-1.7 2.3,-1.7 l 3.3,0 -7.7,22.5 -4.4,0 -7.8,-22.5 z"
           id="path86"
           inkscape:connector-curvature="0"
           style="fill:#064684" /><path
           class="st5"
           d="m 866.5,500.2 c 0,-1.6 0.8,-2.3 2.3,-2.4 l 14,0 0,3.9 -11.8,0 0,4.8 8.8,0 0,1.5 c 0,1.6 -0.8,2.3 -2.4,2.3 l -6.4,0 0,5.8 11.8,0 0,4.1 -16.3,0 0,-20 z"
           id="path88"
           inkscape:connector-curvature="0"
           style="fill:#064684" /><path
           class="st5"
           d="m 900.6,500.2 c 0,-1.6 0.8,-2.3 2.3,-2.4 l 6.5,0 c 3.4,0 6,0.9 7.7,2.8 1.7,1.9 2.6,4.8 2.6,8.5 0,2.1 -0.3,3.9 -1,5.4 -0.6,1.6 -1.6,2.8 -2.7,3.8 -0.9,0.7 -1.9,1.2 -3,1.6 -1.1,0.3 -2.7,0.5 -4.8,0.5 l -7.6,0 0,-20.2 z m 8.2,16 c 2.2,0 3.7,-0.6 4.7,-1.7 1,-1.1 1.5,-3 1.5,-5.5 0,-2.5 -0.5,-4.3 -1.4,-5.5 -0.9,-1.2 -2.3,-1.8 -4.2,-1.8 l -4.3,0 0,14.5 3.7,0 z"
           id="path90"
           inkscape:connector-curvature="0"
           style="fill:#064684" /><path
           class="st5"
           d="m 921.9,500.2 c 0,-1.6 0.8,-2.3 2.3,-2.4 l 14,0 0,3.9 -11.8,0 0,4.8 8.8,0 0,1.5 c 0,1.6 -0.8,2.3 -2.4,2.3 l -6.4,0 0,5.8 11.8,0 0,4.1 -16.3,0 0,-20 z"
           id="path92"
           inkscape:connector-curvature="0"
           style="fill:#064684" /><path
           class="st5"
           d="m 940.5,500.2 c 0,-0.6 0.2,-1.2 0.7,-1.7 0.5,-0.5 1,-0.7 1.6,-0.7 l 2.3,0 0,18.4 11,0 0,4.1 -15.6,0 0,-20.1 z"
           id="path94"
           inkscape:connector-curvature="0"
           style="fill:#064684" /><path
           class="st5"
           d="m 973.5,500.2 c 0,-0.6 0.2,-1.2 0.7,-1.7 0.5,-0.5 1,-0.7 1.6,-0.7 l 2.5,0 9.2,15.4 0,-15.4 4.5,0 0,22.5 -4.8,0 -9.2,-15.4 0,15.4 -4.5,0 0,-20.1 z"
           id="path96"
           inkscape:connector-curvature="0"
           style="fill:#064684" /><path
           class="st5"
           d="m 994.6,500.2 c 0,-1.6 0.8,-2.3 2.3,-2.4 l 14,0 0,3.9 -11.8,0 0,4.8 8.8,0 0,1.5 c 0,1.6 -0.8,2.3 -2.4,2.3 l -6.4,0 0,5.8 11.8,0 0,4.1 -16.3,0 0,-20 z"
           id="path98"
           inkscape:connector-curvature="0"
           style="fill:#064684" /><path
           class="st5"
           d="m 1027,519.9 c -1.1,0.5 -2.3,0.7 -3.7,0.7 -3.1,0 -5.6,-1.1 -7.5,-3.2 -1.9,-2.2 -2.8,-5 -2.8,-8.4 0,-3.4 0.9,-6.3 2.8,-8.5 1.9,-2.2 4.5,-3.2 7.7,-3.1 2.6,0 4.9,0.7 6.8,2 1.7,1.4 2.7,3.3 2.8,5.9 l -2.8,0 c -0.8,0 -1.5,-0.4 -2,-1.2 -0.9,-1.8 -2.5,-2.7 -4.7,-2.7 -3.9,0 -5.8,2.5 -5.9,7.4 0,4.9 2,7.6 6.1,7.9 1.5,0 2.7,-0.4 3.6,-1.3 0.9,-0.9 1.6,-2 1.8,-3.5 l -2.7,0 c -0.6,0 -1.2,-0.2 -1.6,-0.7 -0.5,-0.5 -0.7,-1 -0.7,-1.6 l 0,-1.4 9.2,0 0,12.1 -1.2,0 c -0.6,0 -1.1,-0.2 -1.5,-0.5 -0.5,-0.3 -0.7,-0.7 -0.7,-1.3 l -0.2,-1.1 c -0.9,1.2 -1.9,2 -2.8,2.5 z"
           id="path100"
           inkscape:connector-curvature="0"
           style="fill:#064684" /><path
           class="st5"
           d="m 1038.3,500.6 c 2,-2.1 4.6,-3.2 7.8,-3.2 3.3,0 5.9,1.1 7.9,3.2 1.9,2.2 2.9,5 2.9,8.5 0,3.6 -1,6.4 -2.9,8.5 -1.9,2.1 -4.5,3.1 -7.9,3.1 -3.4,0 -6,-1 -7.8,-3.1 -1.9,-2.1 -2.9,-4.9 -2.9,-8.5 0,-3.6 1,-6.5 2.9,-8.5 z m 3.3,14.1 c 1.1,1.3 2.6,2 4.5,2 1.9,0 3.4,-0.7 4.6,-2 1.1,-1.3 1.6,-3.2 1.6,-5.7 0,-2.4 -0.5,-4.3 -1.6,-5.6 -1.1,-1.3 -2.6,-2 -4.6,-2 -1.9,0 -3.4,0.7 -4.5,2 -1.1,1.4 -1.6,3.3 -1.6,5.6 0,2.4 0.5,4.3 1.6,5.7 z"
           id="path102"
           inkscape:connector-curvature="0"
           style="fill:#064684" /><path
           class="st5"
           d="m 1076.2,518.5 c -1.7,1.4 -4,2.1 -6.9,2.1 -3.3,0 -5.9,-1 -7.6,-3 -1.8,-2.1 -2.7,-4.9 -2.7,-8.6 0,-3.7 0.9,-6.6 2.8,-8.6 1.8,-2 4.5,-3 7.9,-3 2.8,0 5,0.7 6.7,2.1 1.6,1.4 2.5,3.4 2.7,5.8 l -2.8,0 c -1,0 -1.7,-0.5 -2.1,-1.4 -0.8,-1.6 -2.3,-2.5 -4.5,-2.5 -1.9,0 -3.5,0.6 -4.6,1.9 -1,1.3 -1.6,3.2 -1.6,5.6 0,2.4 0.5,4.3 1.6,5.6 1,1.3 2.5,1.9 4.5,1.9 1.3,0 2.5,-0.3 3.4,-1 0.9,-0.7 1.4,-1.7 1.7,-3 l 4.5,0 c -0.3,2.6 -1.3,4.6 -3,6.1 z"
           id="path104"
           inkscape:connector-curvature="0"
           style="fill:#064684" /><path
           class="st5"
           d="m 1081.3,500.2 c 0,-1.6 0.8,-2.4 2.3,-2.4 l 2.3,0 0,22.5 -4.6,0 0,-20.1 z"
           id="path106"
           inkscape:connector-curvature="0"
           style="fill:#064684" /><path
           class="st5"
           d="m 1091,500.6 c 2,-2.1 4.6,-3.2 7.8,-3.2 3.3,0 5.9,1.1 7.9,3.2 1.9,2.2 2.9,5 2.9,8.5 0,3.6 -1,6.4 -2.9,8.5 -1.9,2.1 -4.5,3.1 -7.9,3.1 -3.4,0 -6,-1 -7.8,-3.1 -1.9,-2.1 -2.9,-4.9 -2.9,-8.5 0,-3.6 0.9,-6.5 2.9,-8.5 z m 3.3,14.1 c 1.1,1.3 2.6,2 4.5,2 1.9,0 3.4,-0.7 4.6,-2 1.1,-1.3 1.6,-3.2 1.6,-5.7 0,-2.4 -0.5,-4.3 -1.6,-5.6 -1.1,-1.3 -2.6,-2 -4.6,-2 -1.9,0 -3.4,0.7 -4.5,2 -1.1,1.4 -1.6,3.3 -1.6,5.6 0,2.4 0.5,4.3 1.6,5.7 z"
           id="path108"
           inkscape:connector-curvature="0"
           style="fill:#064684" /></g></g><linearGradient
       id="SVGID_4_"
       gradientUnits="userSpaceOnUse"
       x1="1076.894"
       y1="529.935"
       x2="1076.894"
       y2="574.75989"
       gradientTransform="matrix(0,-1,-1,0,1639.5432,1472.0448)"><stop
         offset="0"
         style="stop-color:#E4831D"
         id="stop111" /><stop
         offset="1"
         style="stop-color:#F2D200"
         id="stop113" /></linearGradient><polyline
       class="st3"
       points="1080.2,430.8 1054.5,395.1 1080.2,359.5 1109.6,395.1 1080.2,430.8  "
       id="polyline115"
       style="fill:url(#SVGID_4_)" /><g
       id="g117"><g
         id="g119"><polygon
           class="st7"
           points="1080.2,430.8 1054.5,395.1 1018.7,395.1 1031.4,415.9 "
           id="polygon121"
           style="fill:#d67d10" /></g></g><g
       id="g123"><g
         id="g125"><polygon
           class="st8"
           points="1054.5,395.1 1080.2,359.5 1031.4,374.4 1018.7,395.1 "
           id="polygon127"
           style="fill:#b03f13" /></g></g><linearGradient
       id="SVGID_5_"
       gradientUnits="userSpaceOnUse"
       x1="1076.894"
       y1="323.75171"
       x2="1076.894"
       y2="368.5766"
       gradientTransform="matrix(0,-1,1,0,561.6536,1472.0448)"><stop
         offset="0"
         style="stop-color:#00509E"
         id="stop130" /><stop
         offset="1"
         style="stop-color:#0080C5"
         id="stop132" /></linearGradient><polyline
       class="st4"
       points="914.8,430.8 940.5,395.1 914.8,359.5 885.4,395.1 914.8,430.8  "
       id="polyline134"
       style="fill:url(#SVGID_5_)" /><g
       id="g136"><g
         id="g138"><g
           id="g140"><polygon
             class="st10"
             points="914.8,430.8 940.5,395.1 976.3,395.1 963.6,415.9 "
             id="polygon142"
             style="fill:#00205b" /></g></g></g><g
       id="g144"><g
         id="g146"><g
           id="g148"><polygon
             class="st11"
             points="940.5,395.1 914.8,359.5 963.6,374.4 976.3,395.1 "
             id="polygon150"
             style="fill:#00528f" /></g></g></g><linearGradient
       id="SVGID_6_"
       gradientUnits="userSpaceOnUse"
       x1="972.59723"
       y1="288.5481"
       x2="1039.5736"
       y2="288.5481"><stop
         offset="0"
         style="stop-color:#0080C5"
         id="stop153" /><stop
         offset="1"
         style="stop-color:#00509E"
         id="stop155" /></linearGradient><polyline
       class="st6"
       points="944.2,291.3 997.5,329.7 1050.8,291.3 997.5,247.4 944.2,291.3  "
       id="polyline157"
       style="fill:url(#SVGID_6_)" /><g
       id="g159"><g
         id="g161"><defs
           id="defs163"><polygon
             id="SVGID_8_"
             points="944.2,291.3 997.5,329.7 997.5,391.5 966.5,364.3 " /></defs><clipPath
           id="SVGID_7_"><use
             xlink:href="#SVGID_8_"
             style="overflow:visible"
             id="use167"
             x="0"
             y="0"
             width="100%"
             height="100%" /></clipPath></g><g
         id="g169"><defs
           id="defs171"><polygon
             id="SVGID_10_"
             points="944.2,291.3 997.5,329.7 997.5,391.5 966.5,364.3 " /></defs><use
           xlink:href="#SVGID_10_"
           style="overflow:visible;fill:#00528f"
           id="use174"
           x="0"
           y="0"
           width="100%"
           height="100%" /><clipPath
           id="SVGID_9_"><use
             xlink:href="#SVGID_10_"
             style="overflow:visible"
             id="use177"
             x="0"
             y="0"
             width="100%"
             height="100%" /></clipPath><g
           id="g179"
           clip-path="url(#SVGID_9_)"><polygon
             class="st11"
             points="944.2,291.3 997.5,329.7 997.5,391.5 966.5,364.3 "
             id="polygon181"
             style="fill:#00528f" /></g></g><g
         id="g183"><defs
           id="defs185"><polygon
             id="SVGID_12_"
             points="944.2,291.3 997.5,329.7 997.5,391.5 966.5,364.3 " /></defs><clipPath
           id="SVGID_11_"><use
             xlink:href="#SVGID_12_"
             style="overflow:visible"
             id="use189"
             x="0"
             y="0"
             width="100%"
             height="100%" /></clipPath></g></g><g
       id="g191"><g
         id="g193"><defs
           id="defs195"><polygon
             id="SVGID_14_"
             points="997.5,329.7 1050.8,291.3 1028.5,364.3 997.5,391.5 " /></defs><clipPath
           id="SVGID_13_"><use
             xlink:href="#SVGID_14_"
             style="overflow:visible"
             id="use199"
             x="0"
             y="0"
             width="100%"
             height="100%" /></clipPath></g><g
         id="g201"><defs
           id="defs203"><polygon
             id="SVGID_16_"
             points="997.5,329.7 1050.8,291.3 1028.5,364.3 997.5,391.5 " /></defs><use
           xlink:href="#SVGID_16_"
           style="overflow:visible;fill:#00205b"
           id="use206"
           x="0"
           y="0"
           width="100%"
           height="100%" /><clipPath
           id="SVGID_15_"><use
             xlink:href="#SVGID_16_"
             style="overflow:visible"
             id="use209"
             x="0"
             y="0"
             width="100%"
             height="100%" /></clipPath><g
           id="g211"
           clip-path="url(#SVGID_15_)"><polygon
             class="st10"
             points="997.5,329.7 1050.8,291.3 1028.5,364.3 997.5,391.5 "
             id="polygon213"
             style="fill:#00205b" /></g></g><g
         id="g215"><defs
           id="defs217"><polygon
             id="SVGID_18_"
             points="997.5,329.7 1050.8,291.3 1028.5,364.3 997.5,391.5 " /></defs><clipPath
           id="SVGID_17_"><use
             xlink:href="#SVGID_18_"
             style="overflow:visible"
             id="use221"
             x="0"
             y="0"
             width="100%"
             height="100%" /></clipPath></g></g><linearGradient
       id="SVGID_19_"
       gradientUnits="userSpaceOnUse"
       x1="778.73743"
       y1="1626.9227"
       x2="778.73743"
       y2="1671.7477"
       gradientTransform="matrix(1,0,0,-1,218.7693,2108.0671)"><stop
         offset="0"
         style="stop-color:#00509E"
         id="stop224" /><stop
         offset="1"
         style="stop-color:#0080C5"
         id="stop226" /></linearGradient><polyline
       style="fill:url(#SVGID_19_)"
       points="961.8,451.7 997.5,426.1 1033.2,451.7 997.5,481.1 961.8,451.7  "
       id="polyline228" /><g
       id="g230"><g
         id="g232"><defs
           id="defs234"><polygon
             id="SVGID_21_"
             points="961.8,451.7 997.5,426.1 997.5,401.4 965.6,425.2 " /></defs><clipPath
           id="SVGID_20_"><use
             xlink:href="#SVGID_21_"
             style="overflow:visible"
             id="use238"
             x="0"
             y="0"
             width="100%"
             height="100%" /></clipPath></g><g
         id="g240"><defs
           id="defs242"><polygon
             id="SVGID_23_"
             points="961.8,451.7 997.5,426.1 997.5,401.4 965.6,425.2 " /></defs><use
           xlink:href="#SVGID_23_"
           style="overflow:visible;fill:#00528f"
           id="use245"
           x="0"
           y="0"
           width="100%"
           height="100%" /><clipPath
           id="SVGID_22_"><use
             xlink:href="#SVGID_23_"
             style="overflow:visible"
             id="use248"
             x="0"
             y="0"
             width="100%"
             height="100%" /></clipPath><g
           id="g250"
           clip-path="url(#SVGID_22_)"><polygon
             class="st11"
             points="961.8,451.7 997.5,426.1 997.5,401.4 965.6,425.2 "
             id="polygon252"
             style="fill:#00528f" /></g></g><g
         id="g254"><defs
           id="defs256"><polygon
             id="SVGID_25_"
             points="961.8,451.7 997.5,426.1 997.5,401.4 965.6,425.2 " /></defs><clipPath
           id="SVGID_24_"><use
             xlink:href="#SVGID_25_"
             style="overflow:visible"
             id="use260"
             x="0"
             y="0"
             width="100%"
             height="100%" /></clipPath></g></g><g
       id="g262"><g
         id="g264"><defs
           id="defs266"><polygon
             id="SVGID_27_"
             points="997.5,426.1 1033.2,451.7 1029.4,425.2 997.5,401.4 " /></defs><clipPath
           id="SVGID_26_"><use
             xlink:href="#SVGID_27_"
             style="overflow:visible"
             id="use270"
             x="0"
             y="0"
             width="100%"
             height="100%" /></clipPath></g><g
         id="g272"><defs
           id="defs274"><polygon
             id="SVGID_29_"
             points="997.5,426.1 1033.2,451.7 1029.4,425.2 997.5,401.4 " /></defs><use
           xlink:href="#SVGID_29_"
           style="overflow:visible;fill:#00205b"
           id="use277"
           x="0"
           y="0"
           width="100%"
           height="100%" /><clipPath
           id="SVGID_28_"><use
             xlink:href="#SVGID_29_"
             style="overflow:visible"
             id="use280"
             x="0"
             y="0"
             width="100%"
             height="100%" /></clipPath><g
           id="g282"
           clip-path="url(#SVGID_28_)"><polygon
             class="st10"
             points="997.5,426.1 1033.2,451.7 1029.4,425.2 997.5,401.4 "
             id="polygon284"
             style="fill:#00205b" /></g></g><g
         id="g286"><defs
           id="defs288"><polygon
             id="SVGID_31_"
             points="997.5,426.1 1033.2,451.7 1029.4,425.2 997.5,401.4 " /></defs><clipPath
           id="SVGID_30_"><use
             xlink:href="#SVGID_31_"
             style="overflow:visible"
             id="use292"
             x="0"
             y="0"
             width="100%"
             height="100%" /></clipPath></g></g></g></svg>